<?xml version="1.0" encoding="UTF-8" standalone="no"?> <!-- Created with Vectornator for iOS (http://vectornator.io/) --><!DOCTYPE svg PUBLIC "-//W3C//DTD SVG 1.1//EN" "http://www.w3.org/Graphics/SVG/1.1/DTD/svg11.dtd">
<svg height="100%" style="fill-rule:nonzero;clip-rule:evenodd;stroke-linecap:round;stroke-linejoin:round;" xmlns:xlink="http://www.w3.org/1999/xlink" xmlns="http://www.w3.org/2000/svg" xml:space="preserve" width="100%" xmlns:vectornator="http://vectornator.io" version="1.1" viewBox="0 0 1024 1024">
<metadata>
<vectornator:setting key="DimensionsVisible" value="1"/>
<vectornator:setting key="PencilOnly" value="0"/>
<vectornator:setting key="SnapToPoints" value="0"/>
<vectornator:setting key="OutlineMode" value="0"/>
<vectornator:setting key="CMYKEnabledKey" value="0"/>
<vectornator:setting key="RulersVisible" value="1"/>
<vectornator:setting key="SnapToEdges" value="0"/>
<vectornator:setting key="GuidesVisible" value="1"/>
<vectornator:setting key="DisplayWhiteBackground" value="0"/>
<vectornator:setting key="doHistoryDisabled" value="0"/>
<vectornator:setting key="SnapToGuides" value="1"/>
<vectornator:setting key="TimeLapseWatermarkDisabled" value="0"/>
<vectornator:setting key="Units" value="Pixels"/>
<vectornator:setting key="DynamicGuides" value="0"/>
<vectornator:setting key="IsolateActiveLayer" value="0"/>
<vectornator:setting key="SnapToGrid" value="0"/>
</metadata>
<defs/>
<g id="レイヤー 1" vectornator:layerName="レイヤー 1">
<path d="M502.606+469.408C396.525+471.313+280.54+490.358+280.54+490.358C280.54+490.358+294.824+509.593+295.395+528.829C295.967+548.064+282.826+567.3+282.826+567.3C282.826+567.3+248.164+602.724+248.926+640.814C249.742+681.626+264.923+720.803+264.923+720.803C264.923+720.803+311.489+786.222+348.722+849.547C385.955+912.872+414.998+987.433+414.998+987.433C414.998+987.433+426.425+1004+438.614+1014.1C450.803+1024.19+471.372+1024+471.372+1024L530.03+1023.24C530.03+1023.24+545.266+1024.95+556.693+1016.38C568.12+1007.81+575.738+988.957+575.738+988.957C575.738+988.957+605.068+924.966+642.015+862.498C678.963+800.03+727.337+732.23+727.337+732.23C727.337+732.23+750.191+676.618+744.097+639.29C737.284+597.561+698.388+563.872+698.388+563.872C698.388+563.872+686.009+549.969+686.961+528.067C687.914+506.165+713.625+482.359+713.625+482.359C713.625+482.359+608.686+467.504+502.606+469.408ZM367.1+555.063C369.46+554.929+371.872+554.971+374.337+555.182C431.891+560.126+458.138+683.577+458.138+683.577C458.138+683.577+418.065+592.538+379.741+582.607C341.417+572.676+308.441+595.534+308.441+595.534C308.441+595.534+331.694+557.077+367.1+555.063ZM638.016+558.991C669.153+561.099+692.104+598.343+692.104+598.343C692.104+598.343+666.097+575.665+633.088+585.512C600.078+595.358+553.76+679.559+553.76+679.559C553.76+679.559+588.639+562.944+631.683+559.063C633.827+558.869+635.94+558.851+638.016+558.991ZM694.365+707.543C694.365+707.543+675.877+719.135+658.418+752.465C619.153+827.425+618.709+853.995+579.857+902.75C555.014+933.926+511.295+938.555+511.295+938.555C511.295+938.555+464.458+938.804+424.45+892.846C384.441+846.889+376.718+811.045+347.269+761.369C317.821+711.693+308.584+711.399+308.584+711.399C308.584+711.399+318.102+707.126+352.84+743.204C387.578+779.283+404.862+811.594+443.328+845.881C481.794+880.168+506.7+880.353+506.7+880.353C506.7+880.352+527.851+884.023+566.597+844.691C581.596+829.465+630.706+757.144+650.538+739.038C682.844+709.543+694.365+707.543+694.365+707.543Z" opacity="1" fill="#141414"/>
<path d="M835.498+434.545C835.498+434.545+840.003+435.374+843.555+437.164C847.107+438.953+849.706+441.704+849.706+441.704C849.706+441.704+879.47+423.849+906.75+388.325C929.759+358.362+943.191+339.81+947.82+288.671C950.556+258.442+943.248+234.429+936.756+222.669C922.447+196.745+910.526+188.644+900.188+183.034C850.28+155.956+818.099+143.169+764.265+154.912C740.63+160.068+731.568+161.302+700.603+176.643C669.638+191.983+645.363+211.347+645.363+211.347L617.45+265.224L587.293+320.299C587.293+320.299+594.805+335.87+583.768+348.913C572.732+361.956+564.218+369.576+544.583+366.984C534.451+365.646+520.487+357.707+515.457+341.749C509.303+322.227+515.37+316.243+525.148+306.699C534.011+298.049+545.756+295.842+545.756+295.842C545.756+295.842+554.801+274.082+560.5+253.832C566.2+233.582+580.765+201.545+573.547+166.236C566.328+130.927+558.287+118.704+528.683+100.062C499.079+81.4195+491.384+82.2924+468.29+87.6217C444.67+93.0724+424.766+113.869+424.766+113.869C424.766+113.869+429.333+100.709+444.083+89.351C458.124+78.5389+470.41+74.0187+487.829+74.2695C522.424+74.7674+551.971+101.853+565.963+116.725C591.119+143.465+592.735+191.71+584.028+220.512C566.928+277.075+558.768+297.421+558.768+297.421C558.768+297.421+563.811+297.474+568.669+300.449C573.527+303.425+578.198+309.324+578.198+309.324C578.198+309.324+621.264+239.172+648.028+169.911C672.047+107.75+623.457+60.293+606.782+44.2992C563.083+2.38418+509.252+11.069+462.423+14.3024C366.492+20.9264+350.495+107.004+348.06+123.978C339.482+183.777+348.502+214.328+348.502+214.328C348.502+214.328+373.92+231.108+387.335+248.654C400.751+266.2+400.042+320.944+400.042+320.944L394.88+295.543C394.88+295.543+390.99+261.666+366.366+241.369C341.743+221.072+334.079+217.415+298.332+204.516C247.646+186.227+226.513+183.92+172.231+200.802C130.758+213.7+107.898+234.525+82.1204+284.275C56.3426+334.025+67.7676+377.636+75.1649+400.265C90.1426+446.085+106.53+478.802+106.53+478.802L114.095+473.493L123.681+471.577C123.681+471.577+91.5365+404.624+106.478+364.481C121.419+324.338+143.993+306.271+181.385+304.427C218.776+302.583+231.449+314.995+256.044+357.105C280.64+399.214+279.766+472.865+279.766+472.865L487.565+455.786L712.489+462.346C712.489+462.346+743.203+339.742+788.057+302.214C834.637+263.241+855.504+271.868+881.552+281.749C894.034+286.483+901.782+305.852+897.908+317.903C891.404+338.139+891.882+344.159+874.235+375.148C857.82+403.974+835.498+434.545+835.498+434.545" opacity="1" fill="#141414"/>
<path d="M844.951+439.575C855.591+446.624+859.624+462.523+852.841+472.625C846.059+482.727+828.461+487.033+817.821+479.983C807.181+472.934+803.5+454.529+810.282+444.427C817.065+434.324+834.312+432.525+844.951+439.575Z" opacity="1" fill="#141414"/>
<path d="M554.732+306.534C571.59+309.436+580.206+319.739+577.236+335.492C574.265+351.244+563.864+358.422+547.007+355.52C530.149+352.618+521.279+341.377+524.25+325.624C527.221+309.872+537.874+303.633+554.732+306.534Z" opacity="1" fill="#141414"/>
<path d="M116.155+476.077C103.791+481.321+96.2018+498.071+101.654+510.262C107.106+522.453+125.599+530.084+137.963+524.84C150.327+519.596+156.562+501.478+151.11+489.287C145.658+477.096+128.519+470.833+116.155+476.077Z" opacity="1" fill="#141414"/>
</g>
</svg>
