<!--?xml version="1.0" encoding="utf-8"?-->
<!-- Generator: Adobe Illustrator 19.2.1, SVG Export Plug-In . SVG Version: 6.00 Build 0)  -->
<svg version="1.1" id="_x31_0" xmlns="http://www.w3.org/2000/svg" xmlns:xlink="http://www.w3.org/1999/xlink" x="0px" y="0px" viewBox="0 0 512 512" style="width: 256px; height: 256px; opacity: 1;" xml:space="preserve">
<style type="text/css">
	.st0{fill:#374149;}
</style>
<g>
	<path class="st0" d="M333.653,41.349H48.769c-7.187,0-13.031,5.848-13.031,13.027v62.129c0,7.184,5.844,13.028,13.031,13.028
		h286.223c45.484,0,84.328,34.156,88.43,77.758c2.313,24.539-5.516,48.051-22.039,66.199
		c-16.305,17.918-39.508,28.191-63.645,28.191H199.769V230.76c0-5.386-4.382-9.77-9.774-9.77c-1.859,0-3.683,0.531-5.25,1.539
		L4.523,337.525C1.695,339.322,0.004,342.4,0,345.752c-0.004,3.352,1.684,6.434,4.512,8.242L184.75,469.119
		c1.574,1.004,3.39,1.532,5.246,1.532c5.391,0,9.774-4.383,9.774-9.77v-71.016h137.969c47.727,0,92.294-18.988,125.489-53.465
		c33.176-34.45,50.449-79.73,48.645-127.504C508.379,116.509,428.43,41.349,333.653,41.349z" style="fill: rgb(75, 75, 75);"></path>
</g>
</svg>
